<svg xmlns="http://www.w3.org/2000/svg"  width="48px" height="48px" viewBox="0 0 96 96"><title>Artboard-34</title><g id="Paint_Bucket" data-name="Paint Bucket"><path d="M67.5209,41.7188c3.2188,2.0107,5.7266,3.0185,7.499,3.0185a2.87,2.87,0,0,0,2.1221-.7744c1.5381-1.5381.7832-4.7744-2.2441-9.62A86.7392,86.7392,0,0,0,63,19.9219c-7.6748-7.6748-20.414-17.7725-24.042-14.1426-3.6318,3.6318,6.4678,16.3672,14.1426,24.042A86.7362,86.7362,0,0,0,67.5209,41.7188Z"/><path d="M66.4575,43.42a89.4668,89.4668,0,0,1-14.77-12.18,95.8049,95.8049,0,0,1-11.57-13.86q-3.27-4.965-3.82-8.27l-4.49,5.66a26.1637,26.1637,0,0,0-4.8-2.64c-10.12-4.26-20.93-1.63-24.11,5.88-2.3,5.43-.08,12.14,5.66,17.09a24.22,24.22,0,0,0,4.62,3.16l-1.81,2.29a10.0626,10.0626,0,0,0,.77,13.36l16.87,16.87a10.046,10.046,0,0,0,13.36.77l31.42-24.91A21.4173,21.4173,0,0,1,66.4575,43.42Zm-24.89-8.78a5.5179,5.5179,0,0,1-7.21,2.93c-.2-.09-.38-.21-.57-.31-5.8,3.6-13.4881,2.4051-19.34-.6l-.01.01a23.0318,23.0318,0,0,1-4.57-3.08c-5.07-4.37-7.08-10.18-5.13-14.8,2.75-6.5,12.39-8.65,21.49-4.82a24.054,24.054,0,0,1,4.33,2.37l-14.84,18.72c4.4794,2.3366,11.4558,3.5955,16.48.82a5.1392,5.1392,0,0,1-.79-1.31,5.44,5.44,0,0,1,.02-4.21,5.5031,5.5031,0,1,1,10.14,4.28Z"/><path d="M37.8588,29.2764a3.4992,3.4992,0,0,0-4.5849,1.8623,3.4427,3.4427,0,0,0,.561,3.6087,7.5083,7.5083,0,0,0,2.0845-2.7992,1,1,0,0,1,1.8437.7754,9.414,9.414,0,0,1-2.1767,3.14,3.4916,3.4916,0,0,0,2.2724-6.5874Z"/><path d="M76.7416,57.332a1.0334,1.0334,0,0,0-1.4883,0C74.3061,58.3877,65.9975,67.7969,65.9975,73a10,10,0,0,0,20,0C85.9975,67.7969,77.6889,58.3877,76.7416,57.332ZM75.9975,79a6.0066,6.0066,0,0,1-6-6,1,1,0,0,1,2,0,4.0039,4.0039,0,0,0,4,4,1,1,0,0,1,0,2Z"/></g></svg>