<?xml version="1.0"?>
<svg width="144px" height="144px" viewBox="0 0 18 18" xmlns="http://www.w3.org/2000/svg" xmlns:svg="http://www.w3.org/2000/svg" version="1.1">
 <g class="layer">
  <title>Layer 1</title>
  <path d="m16.02,0.02l-14,0a2,2 0 0 0 -2,2l0,14a2,2 0 0 0 2,2l14,0a2,2 0 0 0 2,-2l0,-14a2,2 0 0 0 -2,-2m-8,13l-1,0c-1.61,0 -4,-1.06 -4,-4c0,-2.93 2.39,-4 4,-4l1,0l0,2l-1,0c-0.46,0 -2,0.17 -2,2c0,1.9 1.67,2 2,2l1,0l0,2m4,-5l0,2l-6,0l0,-2l6,0m-1,5l-1,0l0,-2l1,0c0.46,0 2,-0.17 2,-2c0,-1.9 -1.67,-2 -2,-2l-1,0l0,-2l1,0c1.61,0 4,1.07 4,4c0,2.94 -2.39,4 -4,4z" id="svg_1"/>
 </g>
</svg>